<svg preserveAspectRatio="none" width="100%" height="100%" overflow="visible" style="display: block;" viewBox="0 0 282 358" fill="none" xmlns="http://www.w3.org/2000/svg">
<g id="Frame 2090068124">
<g id="Rectangle 34624287" filter="url(#filter0_d_0_65)">
<path d="M16 20C16 13.3726 21.3726 8 28 8H254C260.627 8 266 13.3726 266 20V322C266 328.627 260.627 334 254 334H28C21.3726 334 16 328.627 16 322V20Z" fill="var(--fill-0, white)"/>
<path d="M247.814 10H254C254.899 10 255.767 10.1176 256.591 10.3379L258.522 10.8545L258.994 9.08887C261.606 10.2864 263.712 12.3929 264.91 15.0049L263.146 15.4775L263.662 17.4092C263.882 18.2332 264 19.1014 264 20V25.8721H266V37.3594H264V49.1025H266V60.5898H264V72.333H266V83.8203H264V95.5645H266V107.052H264V118.795H266V130.282H264V142.025H266V153.513H264V165.257H266V176.743H264V188.487H266V199.975H264V211.718H266V223.205H264V234.949H266V246.436H264V258.18H266V269.667H264V281.41H266V292.897H264V304.641H266V316.128H264V322C264 322.786 263.909 323.549 263.739 324.279L263.662 324.591L263.146 326.522L264.91 326.994C263.712 329.606 261.606 331.712 258.994 332.91L258.522 331.146L256.591 331.662C255.767 331.882 254.899 332 254 332H247.814V334H235.074V332H222.704V334H209.963V332H197.593V334H184.852V332H172.481V334H159.741V332H147.37V334H134.63V332H122.26V334H109.519V332H97.1484V334H84.4072V332H72.0371V334H59.2959V332H46.9258V334H34.1855V332H28C27.1014 332 26.2332 331.882 25.4092 331.662L23.4775 331.146L23.0049 332.91C20.3929 331.712 18.2864 329.606 17.0889 326.994L18.8545 326.522L18.3379 324.591L18.2607 324.279C18.1149 323.653 18.0278 323.004 18.0059 322.336L18 322V316.128H16V304.641H18V292.897H16V281.41H18V269.667H16V258.18H18V246.436H16V234.948H18V223.205H16V211.718H18V199.975H16V188.487H18V176.743H16V165.257H18V153.513H16V142.025H18V130.282H16V118.795H18V107.051H16V95.5645H18V83.8203H16V72.333H18V60.5898H16V49.1025H18V37.3594H16V25.8721H18V20C18 19.1014 18.1176 18.2332 18.3379 17.4092L18.8545 15.4775L17.0889 15.0049C18.2866 12.393 20.393 10.2866 23.0049 9.08887L23.4775 10.8545L25.4092 10.3379C26.2332 10.1176 27.1014 10 28 10H34.1855V8H46.9258V10H59.2959V8H72.0371V10H84.4072V8H97.1484V10H109.519V8H122.259V10H134.63V8H147.37V10H159.74V8H172.481V10H184.852V8H197.593V10H209.963V8H222.704V10H235.074V8H247.814V10Z" stroke="var(--stroke-0, #C6CFF1)" stroke-width="4" stroke-linecap="square" stroke-dasharray="8 16"/>
</g>
<circle id="Ellipse 10" cx="17" cy="171" r="6" fill="var(--fill-0, #00D00E)" stroke="var(--stroke-0, white)" stroke-width="4"/>
</g>
<defs>
<filter id="filter0_d_0_65" x="0" y="0" width="282" height="358" filterUnits="userSpaceOnUse" color-interpolation-filters="sRGB">
<feFlood flood-opacity="0" result="BackgroundImageFix"/>
<feColorMatrix in="SourceAlpha" type="matrix" values="0 0 0 0 0 0 0 0 0 0 0 0 0 0 0 0 0 0 127 0" result="hardAlpha"/>
<feOffset dy="8"/>
<feGaussianBlur stdDeviation="8"/>
<feComposite in2="hardAlpha" operator="out"/>
<feColorMatrix type="matrix" values="0 0 0 0 0.472032 0 0 0 0 0.533608 0 0 0 0 0.749122 0 0 0 0.25 0"/>
<feBlend mode="multiply" in2="BackgroundImageFix" result="effect1_dropShadow_0_65"/>
<feBlend mode="normal" in="SourceGraphic" in2="effect1_dropShadow_0_65" result="shape"/>
</filter>
</defs>
</svg>
